solid 
   facet normal -1.000000e+00 0.000000e+00 0.000000e+00
      outer loop
         vertex -6.750000e+01 1.000000e+01 -1.500000e+01
         vertex -6.750000e+01 9.184850e-16 -1.500000e+01
         vertex -6.750000e+01 -9.184850e-16 1.500000e+01
      endloop
   endfacet
   facet normal -1.000000e+00 -0.000000e+00 -0.000000e+00
      outer loop
         vertex -6.750000e+01 -9.184850e-16 1.500000e+01
         vertex -6.750000e+01 1.000000e+01 1.500000e+01
         vertex -6.750000e+01 1.000000e+01 -1.500000e+01
      endloop
   endfacet
   facet normal 0.000000e+00 0.000000e+00 1.000000e+00
      outer loop
         vertex -6.750000e+01 1.000000e+01 1.500000e+01
         vertex -6.750000e+01 -9.184850e-16 1.500000e+01
         vertex 6.750000e+01 -9.184850e-16 1.500000e+01
      endloop
   endfacet
   facet normal 0.000000e+00 0.000000e+00 1.000000e+00
      outer loop
         vertex 6.750000e+01 -9.184850e-16 1.500000e+01
         vertex 6.750000e+01 1.000000e+01 1.500000e+01
         vertex -6.750000e+01 1.000000e+01 1.500000e+01
      endloop
   endfacet
   facet normal 1.000000e+00 -0.000000e+00 0.000000e+00
      outer loop
         vertex 6.750000e+01 1.000000e+01 1.500000e+01
         vertex 6.750000e+01 -9.184850e-16 1.500000e+01
         vertex 6.750000e+01 9.184850e-16 -1.500000e+01
      endloop
   endfacet
   facet normal 1.000000e+00 0.000000e+00 -0.000000e+00
      outer loop
         vertex 6.750000e+01 9.184850e-16 -1.500000e+01
         vertex 6.750000e+01 1.000000e+01 -1.500000e+01
         vertex 6.750000e+01 1.000000e+01 1.500000e+01
      endloop
   endfacet
   facet normal 0.000000e+00 0.000000e+00 -1.000000e+00
      outer loop
         vertex 6.750000e+01 1.000000e+01 -1.500000e+01
         vertex 6.750000e+01 9.184850e-16 -1.500000e+01
         vertex -6.750000e+01 9.184850e-16 -1.500000e+01
      endloop
   endfacet
   facet normal 0.000000e+00 0.000000e+00 -1.000000e+00
      outer loop
         vertex -6.750000e+01 9.184850e-16 -1.500000e+01
         vertex -6.750000e+01 1.000000e+01 -1.500000e+01
         vertex 6.750000e+01 1.000000e+01 -1.500000e+01
      endloop
   endfacet
   facet normal 0.000000e+00 1.000000e+00 0.000000e+00
      outer loop
         vertex 6.750000e+01 1.000000e+01 -1.500000e+01
         vertex -6.750000e+01 1.000000e+01 -1.500000e+01
         vertex -6.750000e+01 1.000000e+01 1.500000e+01
      endloop
   endfacet
   facet normal 0.000000e+00 1.000000e+00 0.000000e+00
      outer loop
         vertex -6.750000e+01 1.000000e+01 1.500000e+01
         vertex 6.750000e+01 1.000000e+01 1.500000e+01
         vertex 6.750000e+01 1.000000e+01 -1.500000e+01
      endloop
   endfacet
   facet normal 0.000000e+00 -1.000000e+00 -6.123234e-17
      outer loop
         vertex 6.750000e+01 -9.184850e-16 1.500000e+01
         vertex -6.750000e+01 -9.184850e-16 1.500000e+01
         vertex -6.750000e+01 9.184850e-16 -1.500000e+01
      endloop
   endfacet
   facet normal -0.000000e+00 -1.000000e+00 -6.123234e-17
      outer loop
         vertex -6.750000e+01 9.184850e-16 -1.500000e+01
         vertex 6.750000e+01 9.184850e-16 -1.500000e+01
         vertex 6.750000e+01 -9.184850e-16 1.500000e+01
      endloop
   endfacet
endsolid
